<?xml version="1.0" encoding="UTF-8"?>
<!DOCTYPE svg PUBLIC "-//W3C//DTD SVG 1.1//EN" "http://www.w3.org/Graphics/SVG/1.1/DTD/svg11.dtd">
<!-- Creator: CorelDRAW 2019 (64-Bit) -->
<svg xmlns="http://www.w3.org/2000/svg" xml:space="preserve" width="155mm" height="165mm" version="1.1" shape-rendering="geometricPrecision" text-rendering="geometricPrecision" image-rendering="optimizeQuality" fill-rule="evenodd" clip-rule="evenodd"
viewBox="0 0 15500 16500"
 xmlns:xlink="http://www.w3.org/1999/xlink">
 <g id="Capa_x0020_1">
  <metadata id="CorelCorpID_0Corel-Layer"/>
  <g id="_1752842032096">
   <path fill="#17172B" d="M8915.87 11255.65c330.62,-43.71 505.07,-43.45 785.76,-258.23 274.9,-210.37 287.13,-335.02 430.24,-622.25 110.43,8.44 480.85,288.4 604.74,376.19 113.99,80.77 86.02,124.33 85.87,262.07 -0.26,255.33 43.19,1150.49 25.92,1306.31 -158.83,-117.78 -204.35,-348.65 -811.23,-681.42 -404.56,-221.84 -712.11,-250.63 -1121.3,-382.67zm6178.29 -3674.02l0 160.84 -0.07 7.05 0.07 11.46 0 548.51c-4.77,54.29 -12.57,94.52 -24.84,108.58l0.67 48.18c16.65,21.02 22.4,23.91 24.17,27.73l0 610.33c-4.49,17.17 -13.31,30.13 -29.74,36.05 -27.79,27.32 -0.52,16.15 -49.22,17.54 -57.79,1.68 -37.64,-7.45 -50.94,-16.46 -83.6,25.76 -258.7,24.6 -311.51,-35.98 82.11,6.16 261.15,-6.31 311.51,35.98l100.16 -1.08 5.57 -674.11c-577.5,39.59 -1206.24,-401.99 -1217.27,-1016.28 -8.3,-463.71 315.07,-802.3 726.61,-955.26 186.43,-69.28 326.73,-49.52 475.83,-91.98l8.44 -135.88c-86.6,-52.63 -414.69,-96.73 -425.08,-472.23 -4.13,-149.32 27.53,-226.37 123.1,-333.6 122.92,-137.93 153.81,-97.89 291.89,-156.42l9.33 -1424.58c-398.88,-8.1 -413.37,94.38 -505.05,95.7 -68.98,1.01 -200.69,-113.88 -526.41,-63.95 -336.57,51.59 -702.95,171.56 -673.13,574.61 19.5,263.71 284.1,760.36 584.8,518.47 142.35,-114.51 135.97,-278.62 164.98,-450.5 16.15,-95.55 83.17,-414.63 191.34,-423.62 9.44,64.92 -75.99,188.15 -99.64,262.44 -33,103.64 -43.04,221.86 -64.08,329.6 -85.76,439.43 -264.57,307.39 -309.08,460.14 -52.55,180.43 -7.26,474.27 89.56,638.49 163.61,277.49 353.38,200.84 476.24,304.03 -132.41,79.13 -145.46,-93.19 -413.27,66.74 -334.66,199.89 -579.86,582.62 -652.99,956.34 -51.14,261.38 -26.67,685.82 84.03,930.48 32.4,71.63 203.68,152.86 283.05,251.53 130.11,161.73 92.34,243.13 157.65,381.37 103.03,31.44 210.73,-42.78 197.47,146.87 54.41,-4.96 26.35,-8.03 28.3,17.17 56.84,-9.48 26.97,-12.93 38.24,15.94 -81.54,21.21 -26.95,7.56 -38.24,-15.94 -67.73,22.51 -21,4.93 -28.3,-17.17l-14.88 -42.15c-12.74,120.51 36.87,114.29 -38.39,208.99 -11.66,-47.56 7.15,-31.3 33.82,-40.61l2.18 -59.94c75.97,-1.82 71.89,-5.94 110.53,46.79 53.32,0.13 27.01,-14.88 50.42,28.88 64.17,-15.62 17.59,-3.02 31.71,16.07l31.66 15.14 50.32 27.12 -50.32 -27.12 -31.66 -15.14c-51.01,1.77 -30.6,9.95 -31.71,-16.07l-50.42 -28.88c-74.64,-8.51 -51.94,-23.32 -112.71,13.15 -25.44,112.61 -114.01,67.1 -213.11,90.93 -121.31,240.67 -166.66,346.44 -443.36,450.93 -302.64,114.26 -454.44,86.51 -742.89,141.04 -38.48,38.74 -115.34,195.97 -106.21,244.73 35.55,62.69 306.54,39.83 370.4,402.19 115.22,653.78 130.68,1503.99 146.19,2165.35 23.78,1013.97 32.59,2043.96 36.17,3058.66l-46.34 0c-0.24,-1142.32 -34.69,-2294.46 -46.05,-3438.41 -5.05,-507.97 -42.84,-1113.7 -117.05,-1615.86 -32.05,-216.95 -77.66,-496.13 -361.84,-506.99 -63.93,-2.46 -304.67,230.65 -626.51,239.78 -254.8,7.22 -478.1,-37.19 -683.31,-194.12 -212.98,-162.84 -320.83,259.28 -329.02,406 -29.69,531.83 29.69,1159.38 34.04,1703.76 9.09,1131.56 65.26,2277.28 62.43,3405.84l-54.01 0c-11.21,-604.74 -20.26,-1208.79 -33.71,-1813.42 -6.8,-306.69 -3.78,-609.47 -16.14,-916.68 -16.8,-417.54 49.66,-361.43 -242.2,-675.98 -881.92,-950.47 -2422.84,-832.71 -2717.7,-963.07 46.85,-235.24 29.83,-701.08 29.42,-960.38 -0.32,-197.82 31.96,-761.51 -298.57,-670.65 -21.53,35.76 -65.41,203.39 -93.69,269.39 -253.21,590.66 -864.02,1000.25 -1524,999.09 -575.56,-1 -1059.39,-322 -1362.81,-796.08 -63.62,-99.39 -211.73,-466.98 -225.42,-483.03 -128.2,-39.48 -262.44,69.24 -316.84,180.11 -150.64,307.02 -26.96,1336.94 -100.4,1413.87 -78.66,82.41 -1899.87,-5.2 -2852.77,1151.3 -902.76,1095.64 -707.1,1938.87 -724.51,3265.53l-52.45 0c-5.55,-417.97 5.55,-842.08 5.93,-1261.38 0.35,-393.76 34.54,-717.71 167.63,-1090.91 213.05,-597.5 603.36,-1059.94 1109.43,-1431.98 393.48,-289.26 876.07,-441.45 1350.63,-541.98 312.21,-66.13 197.8,-13.13 430.76,-215.43 115.49,-100.29 233.82,-185.83 347.72,-282.46 249.14,-211.38 185.14,-71.33 188.75,-442.42 1.82,-185.49 -6.02,-387.8 70.86,-561.28 116.94,-263.82 226.03,-160.49 353.16,-290.08l-65.8 -393.14c-169.83,23.52 -392.64,164.34 -502.79,-108.14 -75.63,-187.08 -58.97,-419.55 -349.19,-342.13 -200.63,53.5 -406.48,118.92 -572.32,-60.96 -159.81,-173.35 -55.8,-449.89 -111.31,-630.35 -78.65,-255.64 -655.9,-390.01 -659.93,-830.58 -2.18,-238.03 136.64,-335.67 -27.71,-611.43 -136.6,-229.22 -588.56,-598.37 -270.06,-1003.9 136.44,-173.74 316.04,-142.08 428.99,-311.74 187.82,-282.09 -206.25,-684.99 113.2,-1215.85 69.41,-115.33 -103.38,-397.01 -155.53,-518.66 -99.73,-232.63 -618.48,-1507.33 -581.14,-1595.68 144.01,49.82 1038.8,919.09 1246.09,1122.16 85.49,83.75 339.27,439.64 364.39,456.16 213.5,-157.24 224.79,-767.28 579.97,-985.01 177.91,-109.06 249.37,-65.33 437.63,-84.96 -2.14,-230.97 -80.04,-322.75 0.51,-596.44 73.06,-248.23 231.56,-422.9 440.16,-570.04 144.74,-102.08 78.48,-66.36 118.63,-225.33 38.83,-153.77 182.44,-303.17 335.1,-347.83 391.27,-114.44 756.37,251.42 631.7,634.91 -51.19,157.52 -185.02,285.2 -344.14,331.76 -273.39,80.01 -327.01,-55.16 -504.51,-135.86 -112.35,23.69 -296.41,271.14 -335.05,385.86 -55.43,164.52 -20.49,477.97 66.24,618.13 360.51,6.5 259.41,-611.61 854.22,-611.94 175.23,-0.12 406.89,89.67 547.4,192.94 106.69,78.4 334.35,313.2 474.13,232.38 44.76,-49.93 -24.65,-377.78 254.21,-711.4 173.33,-207.37 464.73,-266.2 593.01,-384.93 68.76,-200.61 -32.85,-213.68 167.24,-431.65 109.66,-119.45 291.09,-159.86 447.08,-132.82 328.64,56.98 518.66,457.59 336.71,743.58 -317.57,499.1 -742.05,103.36 -825.69,116.99 -74.61,12.14 -304.92,177.5 -369.29,232.92 -119.37,102.8 -193.03,253.43 -206.12,409.59 709.63,-214.32 708.42,206.55 900.8,519.44 236.87,385.25 636.75,33.13 1101.39,442.92 462.77,408.14 231.95,926.69 309.22,1235.06 81.01,323.26 644.09,286.48 378.95,1075.44 -55.89,166.29 -200.37,396.83 -225.94,551.56 -41.23,249.46 183.57,333.92 223.22,536.63 98.82,505.31 -372.09,659.4 -604.25,922.87 -222.31,252.29 -102.66,324.66 -87.57,601.18 13.8,253.19 -67.64,384.13 -310.04,451.19 -260.23,71.98 -380.69,-15.21 -500.21,273.73 -141.52,342.09 -160.2,228.25 -448.64,338.74l-57.34 451.88c293.78,147.31 590.55,135.52 898.62,216.31 569.13,149.23 1069.26,333.4 1586.64,617.5l681.77 436.4c25.85,-156.73 -13.3,-301.6 33.39,-489.27 51.12,-205.47 143.53,-196.53 217.02,-315.37l-540.7 -600.44c-161.68,31.42 -176.73,167.18 -497.73,155.71 -481.56,-17.19 -804.53,-660.01 -711.86,-1211.47 130.83,-778.58 943.97,-1111.86 1398.1,-357.22 199.42,-320.21 215.1,-128.54 452.42,-208.23 144.57,-48.53 109.39,-53.49 281.29,-51.59 146.96,1.61 200.74,-28.04 314.46,-33.18 1159.85,-52.3 875.93,87.19 952.14,395.71 107.85,19.14 226.59,1.56 338.18,14.62 93.59,10.93 217.08,52.8 306.53,58.75 -59.17,-388.07 -217.92,-724.19 18.84,-1262.05 125.67,-285.5 323.81,-523.52 590.09,-686.57 51.51,-31.55 89.58,-41.33 114.53,-77.09 -433.05,-338.61 -279.76,-670.68 -293.84,-936.77 -255.05,-79.38 -374.59,-197.08 -447.28,-469.45 -71.55,-268.19 -44.62,-490.09 209.94,-634.76 208.73,-118.63 512.07,-187.05 750.75,-167.94 182.21,14.6 184.24,96.45 355.67,28.51 157.97,-62.63 297.16,-28.76 409.08,-64.23l0 0 7.7 63.99 31.32 1621 -43.28 -1.28 4.9 0.82 -4.9 -0.82c40.32,-62.17 36.35,-85.67 -2.63,-142.88 -69.13,11.62 -31.28,-0.6 -69.67,29.5l-89.48 38.81 -36.67 33.28 -28.5 1.99 -4.06 28.18c-35.06,15.79 -58.17,43.5 -78.87,77.62 -37.22,35.65 -27.84,18.85 -36.76,75.91l-21.36 177 296.71 4.75c-53.49,-64.87 -101.48,-53.81 -128.78,-148.19l-10.43 -42.41c42.26,35.89 50.13,81.46 93.12,115.39 62.68,49.51 78.94,14.59 93.95,95.6l66.71 24.36 0 1525.54c-315.78,35.9 -455.62,31.75 -37.69,-25.87l7.91 -882.92c-420.81,-81.05 -1168.81,301.25 -1158.06,964.77 4.95,306.36 139.36,506.86 367.65,692.63 288.42,234.73 449.16,229.34 795.35,275.27l1.38 -897.52 -614.34 19.26c-30.13,26.4 -142.52,27.35 -181.95,-2.59l181.95 2.59c51.18,-46.02 618.36,-71.91 614.34,-19.26 12.53,16.11 19.64,37.41 23.46,61.08zm-7121.48 3219.5c56.97,20.37 201.92,186.27 441.7,315.59 115.48,62.28 120.02,17.58 178.45,96.43 -115.79,-5.14 -533.7,-42.13 -624.54,-74.75l4.39 -337.27zm-4599.73 341.08c34.77,-86.09 499.44,-465.4 605.19,-493.82l-0.09 442.44 -605.1 51.38zm4548.97 -1515.7c473.25,-10.28 1754.45,437.65 2157.32,707.3 -143.83,595.63 -803.14,1006.93 -1403.34,822.26 -212.25,-65.29 -582.13,-241.17 -681.17,-454.28 -49.33,-106.16 36.11,-646.61 -72.81,-1075.28zm3529.87 81.31c58.75,-78.59 -99.55,-275.07 56.05,-530.49 32.71,-53.69 104.65,-145.38 168.53,-162.04 76.63,-20.02 246.66,-25.26 309.07,13.72 54.12,116.04 41.1,314.25 134.65,467.88 150.46,247.09 198.69,128.03 422.45,180.48 -73.69,472.79 -713.61,583.62 -1107.35,420.63 -177.33,-73.42 -359.28,-223.06 -482.08,-367.56 -74.37,-87.49 -364.8,-385.11 -398.9,-451.45 1.64,-4.21 192.45,-295.55 201.71,-306.89l129.34 3.33c4.94,81.11 -18.55,193.18 61.96,209.63l-0.04 -199.05c85.43,-20.39 532.32,1.23 609.61,28.98 -60.48,119.9 -119.14,119.86 -162.07,301.46 -25.08,106.13 -33.03,317.32 57.07,391.37zm2523.31 -841.58c36.42,57.31 50.13,64.68 15.51,128.69l-49.65 5.2c-41.1,-66.99 -54.31,-200.93 33.69,-231.31 54.98,63.62 27.28,46.52 0.45,97.42zm-108.63 129.01c-248.27,79.98 -199.89,-177.67 -161.67,-208.36 48.36,-20.17 111.89,-19.07 160.96,0.54 11.51,32.12 4.47,165.17 0.71,207.82zm-157.04 -271.12c-103.28,36.63 -112.71,210.29 -52.46,289.16 77.7,101.72 155.64,43.19 11.16,242.13 -235.89,324.83 -1058.86,398.97 -1344.41,348.46 -276.24,-48.87 -375.71,-885.21 -179.83,-1320.83 115.95,-257.84 373.51,-218.08 632.58,-214.51 228.53,3.15 502.15,25.39 700.78,147.17 108.23,66.37 441.49,434.16 232.18,508.42zm-4359.9 -107.39c-39.09,-384.61 140.82,-957.41 569.14,-1058.46 222.7,-52.56 450.93,24.12 604.87,189.36 229.85,246.74 142.28,361.93 169.34,670 27.95,318.13 133.49,322.73 -52.2,634.35 -93.79,157.41 -258.87,335.63 -450.07,364.15 -486.99,72.61 -796.81,-363.78 -841.08,-799.4zm1518.89 90.77c-114.62,-23.54 -133.71,-159.43 -106.5,-259.29 202.86,-18.4 189.73,152.53 106.5,259.29zm742.54 10.25c-131.35,-11.57 -126.58,-168.4 -112.97,-273.66 83.75,-15.4 168.58,-29.68 174.07,77.85 3.26,64.12 -22.68,148.97 -61.1,195.81zm-512.07 -283.17c62.18,-13.24 111.59,-11.42 161.15,25.88 28.34,75.54 8.29,152.46 -27.34,220.25 -130.29,9.38 -157.16,-152.59 -133.81,-246.13zm892.12 517.52c-78.33,21.2 -560.66,-11.67 -681.43,-14.93 -118.13,-3.17 -214.19,-19.87 -330.79,-21.96 -198.08,-3.56 -207.62,28.94 -166.7,-149.32 219.18,-8.9 110.98,4.62 276.63,-65.7 145.94,54.49 230.19,108.18 362.49,-30.34 68.1,79.65 65.57,120.38 206.18,117.47 209.16,-4.32 261.6,-226.89 278.57,-396.38 15.87,-158.78 -25.63,-184.91 162.06,-164.22 -4,58.67 -71.09,213.78 -88.01,316.38 -23.81,144.25 -11.38,267.09 -19,409zm-300.15 -225.97c7.13,-90.27 54.25,-163.35 24.49,-262.76 -27.83,-92.88 -137.43,-78.68 -214.55,-100.44 -17.07,-119.97 -7.28,-385.35 32.18,-500.45 64.81,-188.93 172.77,-185.91 360.31,-183.96 179.1,1.88 357.52,-1.45 536.49,2.11 219.35,4.33 247.09,121.18 199.08,331.64 -123.99,32.59 -264.95,-2.18 -376.92,48.91 -117.33,53.52 -87.19,171.59 -287.15,104.66 -16.73,-102.2 34.71,-171.8 -26.3,-233.15 -77.27,159.31 11.72,768.43 -247.63,793.44zm-740.18 -21.75c27.03,-285 79.99,-260.17 -199.62,-316.92 -18.83,-101.72 -20.15,-353.9 12.24,-448.36 58.03,-169.25 155.07,-179.98 325.11,-159.01 -44.66,232.22 -64.89,238.96 -58.28,505.74 3.69,148.77 91.16,407.63 -79.45,418.55zm356.59 -22.56c-11.29,-69.98 52.96,-141.98 6.52,-242.29 -35.98,-77.7 -135.69,-60.28 -217.34,-82.59 -22.65,-133.68 -22.68,-368.93 25.51,-494.98 72.99,-190.93 231.66,-159.47 414.95,-148.17 -53.93,192.33 -98.64,128.9 -99.89,508.74 -0.32,96.88 43.02,522.05 -129.75,459.29zm-6236.53 -1769.8c612.6,-134.02 752.5,791.96 196.5,898.15 -614.32,117.31 -797.87,-766.62 -196.5,-898.15zm1241.48 506.37c-85.39,-606.73 845.85,-712.63 913.59,-126.85 72.35,625.75 -829.49,724.59 -913.59,126.85zm-2057.39 -189.22c6.61,-105.87 121.33,-260.56 212.04,-307.1 86.27,-44.23 139.94,278 152.25,330.81 68.5,293.64 109.82,563.03 471.58,614.45 155.68,22.14 281.7,-17.51 401.79,-115.92 133.43,-109.35 130.04,-250.54 222.25,-329.26 86.09,-73.51 372.63,-85.83 471.38,-38.05 119.65,57.92 103.78,224.99 219.23,335 220.56,210.13 549.41,211.66 753.26,-21.38 121.21,-138.54 241.36,-681.17 364.26,-694.17 242.57,-25.66 151.67,742.67 155.19,904.91 7.11,327.98 -8.12,714.74 -38.64,1041.58 -59.75,639.68 -125.71,1089.23 -679.48,1498.25 -476.28,351.75 -1175.05,415.74 -1688.31,105.99 -877.5,-529.56 -877.15,-1448.92 -946.2,-2315.73 -19.85,-249.11 -84.38,-787.87 -70.6,-1009.38zm4152.47 -1450.11c146.58,214.26 180.5,1250.49 143.4,1525.45 -37.47,277.8 -224.64,1160.7 -658.04,1005.14 -166.1,-59.63 -160.09,-96.52 -160.01,-260.47 0.05,-141.87 0.67,-283.89 0.22,-425.82 -2.18,-685.46 -55.93,-877.56 312.74,-1388.4 61.63,-85.41 272.28,-463.28 361.69,-455.9zm-4820.94 -23.11c54,17.52 298.74,427.39 350.32,505.51 170.72,258.63 230.47,292.02 248.96,620.8 15.23,271.34 19.48,558.66 45.42,827.29 12.61,130.51 20.68,260.26 31.57,390.89 21.98,263.46 -638.99,599.02 -860.98,-873.26 -42.76,-283.5 -43.56,-520.78 -8.81,-804.92 13.71,-112.02 119.15,-607.61 193.52,-666.31zm3984.52 1140.13c30.86,-54.83 88.95,-128.02 140.74,-139.7l-31.85 280.34c-74.23,-11.36 -98.46,-65.85 -108.89,-140.64zm-3354.86 -279.58c79.95,12.74 202.77,119.25 204.13,201.79 1.52,91.32 -85.95,209.66 -165.12,217.61l-39.01 -419.4zm455.6 544.94c-98.44,-242.29 -226.33,-423.01 -183.01,-701.12 31.66,-203.22 329.3,-83.54 341.83,-523.54 10.19,-358.09 47.19,-377.89 412.85,-452.05 406.68,-82.46 1235.34,-60 1650.96,0.19 416.41,60.32 266.73,219.01 288.87,577.59 24.34,394.33 295.82,30.86 311.65,551.18 13.16,433.4 -70.88,320.58 -206.52,664.33 -71.87,-151.42 -42.91,-173.77 -182.99,-306.89 -98.54,-93.6 -216.82,-126.6 -368.19,-118.54 -286.95,15.31 -445.25,217.3 -476.16,486.87 -106.42,-1.67 -159.87,-53.2 -311.18,-43.17 -199.94,13.26 -197.22,65.24 -274.75,67.42 -47.55,-526.97 -519.13,-607.03 -785.78,-437.04 -48.48,30.92 -80.38,65.3 -115.24,105.56 -54.42,62.82 -45.39,80.4 -102.34,129.21zm10376.75 -1274.77c29.09,79.67 21.75,211.82 9.31,301.62 -147.98,6.72 -343.27,-154.2 -348.91,-305.35 73.99,-16.37 273.74,-24.64 339.6,3.73zm-7825.88 -1665.7c-34.26,-46.6 9.04,-29.23 -37.88,-24.77l-133.47 261.23 -242.91 -27.98c26.24,-99.52 120.79,-278.99 160.43,-409.13 180.14,-591.65 -162.03,-808.3 -290.25,-1351.88 -284.34,-1205.5 707.02,-1488 735.89,-1480.96 44.67,29.07 85.38,115.56 93.58,170.59 -215.03,150.97 -391.37,179.55 -531.78,448.46 -234.54,449.16 59.84,1116.59 215.91,1548.37 194.87,539.13 -73.12,733.97 43.17,840.96l10.82 -27.93c106.78,-464.99 100.13,-590.44 -75.65,-1029.04 -95.39,-237.97 -272,-760.25 -213.48,-1003.23 131.22,-122.43 450.29,-112.32 595.11,21.12 159.15,146.64 170.5,306.99 280.86,476.7 239.78,368.78 676.27,34.59 1102.94,425.68 152.47,139.75 233.01,305 265.34,508.36 34.75,218.68 -30.86,542.91 19.82,706.37 108.29,349.38 624.2,292.73 383.81,1030.49 -61.01,187.28 -176.89,352.08 -228.49,543.25 -70.81,262.35 117.03,329.54 195.88,518.98 79.71,191.49 -17.56,438.01 -146.96,586.32 -120.9,138.58 -286.32,207.77 -413.49,343.14 -399.76,425.53 203.14,888.25 -388.77,1046.99 -232.46,62.35 -381.85,1.81 -504.27,252.01 -77.62,158.66 -175.86,399.07 -403.57,321.26 -31.53,-57.99 1.38,-525.13 10.73,-621.32 106.9,9.72 349.51,278.72 628,-174.2 296.04,-481.47 283.13,-1160.24 242.63,-1695.16 -10.08,-132.92 -97.14,-715.68 -187.84,-786.45 -49.29,24.04 -578.42,798.59 -617.61,891.41 -42.31,100.23 -128.02,234.04 -230.59,256.76 -32,-208.27 47.11,-470.82 -198.66,-546.06 -218.62,-66.91 -94.03,-424.11 -127.22,-601.55 -40.13,-214.66 -332.8,-212.59 -508.83,-230.56 -250.87,-25.59 -447.11,-25.44 -698.04,-25.22 -1873.58,1.77 -978.5,504.03 -1356.87,834.67 -64.31,56.22 -158.17,71.55 -209.29,153.38 -55.07,88.18 -1.69,225.53 -35.23,326.58 -11.05,-4.11 -230.21,-167.2 -259.52,-194.48 -96.06,-89.38 -485.16,-796.75 -583.1,-845.69 -109.08,79.07 -232.59,619.32 -246.84,766.48 -49.59,512.46 10.15,1246.77 286.92,1695.22 284.43,460.86 545.23,186.62 633.9,167.24 36.54,47.95 78.65,616.47 58.22,683.68 -109.36,74.59 -335.37,99.36 -412.44,-27.11 -59.78,-98.13 -64.99,-297.81 -166.03,-385.75 -203.2,-176.92 -611.29,223.37 -812.56,-117.96 -177.94,-301.78 136.38,-471.32 -279.2,-809.66 -200.48,-163.23 -488.6,-327.97 -446.64,-634.85 26.42,-193.18 88.23,-256.04 12.86,-474.47 -45.79,-132.77 -124.03,-220.02 -212.73,-324.23 -183.61,-215.72 -320.94,-507.44 -88.18,-750.94 201.56,-210.87 521.36,-128.43 455.6,-616.77 -35.1,-260.67 -163.98,-720.97 81.79,-907.21 95.71,80.53 80.48,284.44 421.1,553.27 87.79,69.28 545.67,346.51 628.13,272.37 68,-82.26 -0.65,-591.54 -24.36,-717.75 -26.63,-141.74 -178.47,-545.69 -180.11,-601.93 79.58,-143.81 127.44,-133.4 190.28,-335.2 38.89,-124.87 90.53,-255.5 148.3,-373.27 137.79,-280.9 329.97,-406.46 654.97,-351.8 55.09,71.59 167.94,400.91 256.8,543.04 100.3,160.46 216.59,322.52 324.86,477.6 162.33,232.55 172.98,358.24 156.27,640.72 -35.12,593.94 -191.82,397.76 -235.08,559.32 160.27,-24.32 129.69,-103.42 372.04,-90.34 134.67,7.26 241.97,130.21 291.48,91.49 -17.49,-54.65 -83.55,-74.94 -129.74,-109.72 -2.96,-115.99 83.12,-249.2 42.26,-639.01 -59.11,-564.29 -635.08,-1058.56 -655.21,-1380.69 239.65,-62.24 156.59,-0.43 369.27,-358.04 215.34,-362.09 678.39,-295.42 1005.63,-54.9 67.38,49.52 136.28,117.05 203.74,159.31 134.61,84.34 155.26,47.41 279.48,82.24 22.14,76.76 24.67,242.89 47.38,349.1 149.92,700.83 521.47,763.74 252.64,1506.17 -182.32,503.52 -284.25,269.39 -332.22,433.87 46.13,28.18 194.67,-96.9 342.76,-93.57 141.93,3.19 251.96,123.48 321.59,118.58 -5.44,-55.59 -47.52,-64.64 -88.92,-98.76 2.98,-69.41 82.7,-194.11 110.84,-283.24zm-4932.12 -1149.37c-67.32,-45.8 -59.52,-7.3 -139.25,-11.17l-334.72 -897.92c51.7,38.59 1560.85,2418.26 1593.31,2526.87 -167.74,-31.53 -642.26,-292.74 -699.88,-460.72l82.89 -55.95c-125.51,-95.22 -83.79,153.16 -254.36,-201.88 -39.87,-82.98 -141.19,-264.04 -138.67,-354.92l124.37 -38.91c-69.73,-55.25 -76.94,-8.68 -164.11,-24.17 -33.92,-50.92 -172.79,-381.11 -170.33,-431.49 59.2,-33.78 64.73,6.13 100.75,-49.74zm1171.94 1560.37c-48.52,-31.74 -1608.85,-2480.93 -1688.48,-2666.06 107.88,58.53 919.09,796.75 958.94,879.02 -36.58,54.03 -98.97,77.48 -57.77,142.64l104.79 -91.53c85.62,37.65 267.49,257.95 312.36,345.93 -40.17,48.77 -139.16,74.86 -91.87,152.45 76.17,-30.17 4.02,-57.64 128.93,-89.56 236.81,218.49 350.49,991.25 333.1,1327.11zm1565.61 -206c-35.51,-137.1 184.17,-574.16 -59.01,-979.55 -257.59,-429.42 -771.72,-960.53 -655.55,-1637.96 27.38,-159.6 81.59,-275.05 188.41,-394.61 64.83,-72.56 224.21,-235.08 319.81,-261.84l76.74 190.18c-67.06,90.47 -180.55,154.63 -264.1,284.36 -237.39,368.69 -3.2,855.38 181.4,1219.13 113.1,222.88 311.42,432.14 412.95,672.53 79.95,189.23 158.94,760.26 24.49,923.83l-225.14 -16.07zm3302.65 -3200.85c-165.13,-57.88 -131.03,-282.7 11.42,-313 62.03,71.81 41.58,238.01 -11.42,313zm-2589.78 -40.82c-155.22,-43.95 -158.19,-306.21 0.58,-305.7 35.1,90.23 59.28,228.19 -0.58,305.7zm2580.02 -349.12c-14.23,66.25 -189.7,87.01 -147.16,289.32 15.66,74.4 52.29,85.52 95.78,128.33 61.4,60.42 11.23,101.72 -58.85,58.33 -283.11,-175.3 9.39,-641.61 110.23,-475.98zm-2612.2 446.59c-95.22,69.41 -218.66,-139.06 -220.33,-249.2 -1.49,-99.46 94.55,-332.26 203.7,-248.94 6.26,96.79 -139.47,73.06 -124.14,264.27 15.1,188.19 156.21,124.89 140.77,233.87zm2501.04 111.93c-216.82,247.79 -754.42,65.24 -734.7,-377.46 20.99,-470.74 649.87,-512.01 766.54,-282.24 -52.24,98.06 -186.66,104.61 -199.6,314.01 -14.88,240.97 119.36,224.53 167.76,345.69zm-2568.57 -33.97c-221.06,284.29 -758.85,119.86 -768.68,-295.25 -10.9,-460.64 561.98,-597.98 739.65,-351.73 -106.4,107.27 -195.94,159.42 -177.39,346.49 20.99,211.81 141,200.61 206.42,300.49z"/>
   <path fill="#EE65E1" d="M12376.33 8232.41c398.28,-133.03 432.53,1217.16 80.21,1278.65 -392.04,68.44 -429.31,-1162.05 -80.21,-1278.65zm1333.1 491.72c209.31,-74.26 -123.95,-442.05 -232.18,-508.42 -198.63,-121.78 -472.25,-144.02 -700.78,-147.17 -259.07,-3.57 -516.63,-43.33 -632.58,214.51 -195.88,435.62 -96.41,1271.96 179.83,1320.83 285.55,50.51 1108.52,-23.63 1344.41,-348.46 144.48,-198.94 66.54,-140.41 -11.16,-242.13 -60.25,-78.87 -50.82,-252.53 52.46,-289.16z"/>
   <path fill="#030302" d="M15086.45 7528.74c0,30.34 -28.14,31.12 -315.35,31.55 -75.18,0.11 -209.09,5.77 -299.6,0 -90.51,-5.77 -268.04,15.76 -252.29,-94.61 31.55,-63.07 106.58,-40.95 204.99,-47.3 233.15,-14.94 427,-10.99 663.98,-23.5l4.81 1747.04 1.19 -32.55c0.2,-1623.35 -10.54,1655.57 -1.19,32.55 1.04,-182.91 32.22,450.38 6.11,9.02 -3.91,-66.41 37.75,44.56 -4.94,17.97 -91.42,-56.95 -286.78,-25.81 -312.18,18.49 -26.39,45.98 155.28,227.62 53.71,464.71 -95.62,223.19 -545.69,308.48 -741.91,470.47 -238.64,197 -309.37,663.27 -29.46,849.36 230.76,153.4 647.07,199.7 775.43,454.36 186.08,369.19 -114.58,574.16 -403.41,712.05 -258.38,123.38 -577.29,248.1 -661.48,553.3 -131.69,477.34 190.98,547.58 560.56,608.61 345.54,57.07 649.64,298.39 410.99,677.75 -150.13,238.62 -479.41,355.82 -713.8,497.73 -236.13,142.97 -554.33,485.81 -239.84,739.89 236.11,190.78 692.7,106.19 892.22,323.19l-92.4 0c-276.55,-212.38 -1086.36,-63.37 -954.3,-699.12 73.06,-351.76 656.74,-520.29 926.22,-729.39 172.25,-133.64 276.93,-385.43 149.34,-587.83 -106.6,-169.08 -427.15,-169.07 -609.82,-211.9 -548.89,-128.69 -495.85,-709.78 -119.6,-978.79 300.82,-215.1 959.91,-348.61 843.08,-800.05 -104.79,-404.93 -780.81,-318.53 -949.65,-704.69 -224.69,-513.88 227.1,-777.08 606.48,-958.31 222.84,-106.45 399.1,-207.54 314.66,-497.11 -78.97,-270.81 -271.53,-214.27 -493.32,-312.58l-50.32 -27.12 -31.66 -15.14c-14.12,-19.09 32.46,-31.69 -31.71,-16.07 -23.41,-43.76 2.9,-28.75 -50.42,-28.88 -38.64,-52.73 -34.56,-48.61 -110.53,-46.79l-2.18 59.94c-26.67,9.31 -45.48,-6.95 -33.82,40.61 75.26,-94.7 25.65,-88.48 38.39,-208.99l14.88 42.15c7.3,22.1 -39.43,39.68 28.3,17.17 11.29,23.5 -43.3,37.15 38.24,15.94l537.9 213.59c52.81,60.58 227.91,61.74 311.51,35.98 13.3,9.01 -6.85,18.14 50.94,16.46 48.7,-1.39 21.43,9.78 49.22,-17.54 16.43,-5.92 17.54,-1594.45 22.03,-1611.62zm7.71 965.24c-1.77,-3.82 16.65,-891.32 0,-912.35l0 0c12.27,-14.06 -4.77,782.15 0,727.86l0 184.49zm0 -548.52l-0.07 -11.45 0.07 -7.06 0 18.51z"/>
   <g>
    <path fill="#EF882B" d="M4221.47 11281.52c50.99,-31.12 330.44,121.65 408.08,151.85 282.48,109.86 719.54,169.01 1019.09,177.71 153.74,4.45 472.96,-44.19 587.5,-17.84 -13.82,53.04 -42.33,53.07 -112.86,55.14 -471.53,13.8 -479.65,32.96 -1012.09,-32.72 -172.81,-21.32 -799.1,-200.98 -889.72,-334.14zm-3792.42 4257.3l1531.31 0 -1.47 -331.79c-0.43,-73.16 -15.16,-70.21 32.48,-96.16 45.12,79.28 18.7,323.94 16.74,427.95l7881.26 0c-11.58,-112.73 -26.28,-575.84 -4.28,-668.13 82.78,6.5 52.61,221.21 52.05,289.7 -1.02,125.86 4.43,251.7 2.66,378.43l968.59 0c-11.21,-604.74 -20.26,-1208.79 -33.71,-1813.42 -6.8,-306.69 -3.78,-609.47 -16.14,-916.68 -16.8,-417.54 49.66,-361.43 -242.2,-675.98 -881.92,-950.47 -2422.84,-832.71 -2717.7,-963.07 46.85,-235.24 29.83,-701.08 29.42,-960.38 -0.32,-197.82 31.96,-761.51 -298.57,-670.65 -21.53,35.76 -65.41,203.39 -93.69,269.39 -253.21,590.66 -864.02,1000.25 -1524,999.09 -575.56,-1 -1059.39,-322 -1362.81,-796.08 -63.62,-99.39 -211.73,-466.98 -225.42,-483.03 -128.2,-39.48 -262.44,69.24 -316.84,180.11 -150.64,307.02 -26.96,1336.94 -100.4,1413.87 -78.66,82.41 -1899.87,-5.2 -2852.77,1151.3 -902.76,1095.64 -707.1,1938.87 -724.51,3265.53z"/>
    <path fill="#EE65E1" d="M7246 4167.94l-10.82 27.93 -12.69 25.11c-28.14,89.13 -107.86,213.83 -110.84,283.24 41.4,34.12 83.48,43.17 88.92,98.76 -69.63,4.9 -179.66,-115.39 -321.59,-118.58 -148.09,-3.33 -296.63,121.75 -342.76,93.57 47.97,-164.48 149.9,69.65 332.22,-433.87 268.83,-742.43 -102.72,-805.34 -252.64,-1506.17 -22.71,-106.21 -25.24,-272.34 -47.38,-349.1 -124.22,-34.83 -144.87,2.1 -279.48,-82.24 -67.46,-42.26 -136.36,-109.79 -203.74,-159.31 -327.24,-240.52 -790.29,-307.19 -1005.63,54.9 -212.68,357.61 -129.62,295.8 -369.27,358.04 20.13,322.13 596.1,816.4 655.21,1380.69 40.86,389.81 -45.22,523.02 -42.26,639.01 46.19,34.78 112.25,55.07 129.74,109.72 -49.51,38.72 -156.81,-84.23 -291.48,-91.49 -242.35,-13.08 -211.77,66.02 -372.04,90.34 43.26,-161.56 199.96,34.62 235.08,-559.32 16.71,-282.48 6.06,-408.17 -156.27,-640.72 -108.27,-155.08 -224.56,-317.14 -324.86,-477.6 -88.86,-142.13 -201.71,-471.45 -256.8,-543.04 -325,-54.66 -517.18,70.9 -654.97,351.8 -57.77,117.77 -109.41,248.4 -148.3,373.27 -62.84,201.8 -110.7,191.39 -190.28,335.2 1.64,56.24 153.48,460.19 180.11,601.93 23.71,126.21 92.36,635.49 24.36,717.75 -82.46,74.14 -540.34,-203.09 -628.13,-272.37 -340.62,-268.83 -325.39,-472.74 -421.1,-553.27 -245.77,186.24 -116.89,646.54 -81.79,907.21 65.76,488.34 -254.04,405.9 -455.6,616.77 -232.76,243.5 -95.43,535.22 88.18,750.94 88.7,104.21 166.94,191.46 212.73,324.23 75.37,218.43 13.56,281.29 -12.86,474.47 -41.96,306.88 246.16,471.62 446.64,634.85 415.58,338.34 101.26,507.88 279.2,809.66 201.27,341.33 609.36,-58.96 812.56,117.96 101.04,87.94 106.25,287.62 166.03,385.75 77.07,126.47 303.08,101.7 412.44,27.11 20.43,-67.21 -21.68,-635.73 -58.22,-683.68 -88.67,19.38 -349.47,293.62 -633.9,-167.24 -276.77,-448.45 -336.51,-1182.76 -286.92,-1695.22 14.25,-147.16 137.76,-687.41 246.84,-766.48 97.94,48.94 487.04,756.31 583.1,845.69 29.31,27.28 248.47,190.37 259.52,194.48 33.54,-101.05 -19.84,-238.4 35.23,-326.58 51.12,-81.83 144.98,-97.16 209.29,-153.38 378.37,-330.64 -516.71,-832.9 1356.87,-834.67 250.93,-0.22 447.17,-0.37 698.04,25.22 176.03,17.97 468.7,15.9 508.83,230.56 33.19,177.44 -91.4,534.64 127.22,601.55 245.77,75.24 166.66,337.79 198.66,546.06 102.57,-22.72 188.28,-156.53 230.59,-256.76 39.19,-92.82 568.32,-867.37 617.61,-891.41 90.7,70.77 177.76,653.53 187.84,786.45 40.5,534.92 53.41,1213.69 -242.63,1695.16 -278.49,452.92 -521.1,183.92 -628,174.2 -9.35,96.19 -42.26,563.33 -10.73,621.32 227.71,77.81 325.95,-162.6 403.57,-321.26 122.42,-250.2 271.81,-189.66 504.27,-252.01 591.91,-158.74 -10.99,-621.46 388.77,-1046.99 127.17,-135.37 292.59,-204.56 413.49,-343.14 129.4,-148.31 226.67,-394.83 146.96,-586.32 -78.85,-189.44 -266.69,-256.63 -195.88,-518.98 51.6,-191.17 167.48,-355.97 228.49,-543.25 240.39,-737.76 -275.52,-681.11 -383.81,-1030.49 -50.68,-163.46 14.93,-487.69 -19.82,-706.37 -32.33,-203.36 -112.87,-368.61 -265.34,-508.36 -426.67,-391.09 -863.16,-56.9 -1102.94,-425.68 -110.36,-169.71 -121.71,-330.06 -280.86,-476.7 -144.82,-133.44 -463.89,-143.55 -595.11,-21.12 -58.52,242.98 118.09,765.26 213.48,1003.23 175.78,438.6 182.43,564.05 75.65,1029.04z"/>
    <path fill="#EF882B" d="M10962.4 15538.82l2067.31 0c-0.24,-1142.32 -34.69,-2294.46 -46.05,-3438.41 -5.05,-507.97 -42.84,-1113.7 -117.05,-1615.86 -32.05,-216.95 -77.66,-496.13 -361.84,-506.99 -63.93,-2.46 -304.67,230.65 -626.51,239.78 -254.8,7.22 -478.1,-37.19 -683.31,-194.12 -212.98,-162.84 -320.83,259.28 -329.02,406 -29.69,531.83 29.69,1159.38 34.04,1703.76 9.09,1131.56 65.26,2277.28 62.43,3405.84z"/>
    <path fill="#1982E2" d="M5696.62 9562.82c40.86,-55.26 72.74,-51.44 144.01,-67.63 42.07,-9.55 107.74,-24.15 144.84,-29.03 101.33,-13.3 279.93,-3.54 386.81,0.71l35.46 34.41c-98.3,90.87 -288.72,-4.45 -535.71,57.21 -37.82,9.45 -37.84,15.96 -68.35,23.64l-75.18 -1.36c-6.37,-2.13 -10.8,-6.11 -15.98,-8.27 -5.38,-2.22 -11.1,-5.77 -15.9,-9.68zm159.27 -1125.12c61.04,-29.24 114.83,-36.3 164.14,2.01l23.67 0.02c65.89,21.3 65.15,21.32 72.69,84.19 -86.65,38.78 -141,-71.85 -264.27,-5.43 -82.87,44.64 -103.99,125.76 -98.85,228.47 111.22,139.81 175.54,63.45 261.9,136.88 160.03,41.35 311.29,295.29 472.05,145.51 230.13,-214.42 -42.96,-833.31 -173.18,-1062.49 -142.9,-251.53 -292.29,-345.73 -309.63,-431.58 293.61,66.65 707.02,1075.62 623.06,1370.59 -37.65,132.3 -135.31,237.54 -283.26,220.04 -126.92,-15.03 -197.04,-133.31 -322.05,-184.26 -109.96,-44.83 -292.45,-26.56 -333.27,-175.99 -42.67,-156.25 49.7,-258.44 167,-327.96zm1104.05 2010.6c553.77,-409.02 619.73,-858.57 679.48,-1498.25 30.52,-326.84 45.75,-713.6 38.64,-1041.58 -3.52,-162.24 87.38,-930.57 -155.19,-904.91 -122.9,13 -243.05,555.63 -364.26,694.17 -203.85,233.04 -532.7,231.51 -753.26,21.38 -115.45,-110.01 -99.58,-277.08 -219.23,-335 -98.75,-47.78 -385.29,-35.46 -471.38,38.05 -92.21,78.72 -88.82,219.91 -222.25,329.26 -120.09,98.41 -246.11,138.06 -401.79,115.92 -361.76,-51.42 -403.08,-320.81 -471.58,-614.45 -12.31,-52.81 -65.98,-375.04 -152.25,-330.81 -90.71,46.54 -205.43,201.23 -212.04,307.1 -13.78,221.51 50.75,760.27 70.6,1009.38 69.05,866.81 68.7,1786.17 946.2,2315.73 513.26,309.75 1212.03,245.76 1688.31,-105.99z"/>
    <path fill="#1982E2" d="M4671.62 7161.45c56.95,-48.81 47.92,-66.39 102.34,-129.21 34.86,-40.26 66.76,-74.64 115.24,-105.56 266.65,-169.99 738.23,-89.93 785.78,437.04 77.53,-2.18 74.81,-54.16 274.75,-67.42 151.31,-10.03 204.76,41.5 311.18,43.17 30.91,-269.57 189.21,-471.56 476.16,-486.87 151.37,-8.06 269.65,24.94 368.19,118.54 140.08,133.12 111.12,155.47 182.99,306.89 135.64,-343.75 219.68,-230.93 206.52,-664.33 -15.83,-520.32 -287.31,-156.85 -311.65,-551.18 -22.14,-358.58 127.54,-517.27 -288.87,-577.59 -415.62,-60.19 -1244.28,-82.65 -1650.96,-0.19 -365.66,74.16 -402.66,93.96 -412.85,452.05 -12.53,440 -310.17,320.32 -341.83,523.54 -43.32,278.11 84.57,458.83 183.01,701.12z"/>
    <path fill="#AAFF10" d="M10079.24 10333.81c-402.87,-269.65 -1684.07,-717.58 -2157.32,-707.3 108.92,428.67 23.48,969.12 72.81,1075.28 99.04,213.11 468.92,388.99 681.17,454.28 600.2,184.67 1259.51,-226.63 1403.34,-822.26z"/>
    <path fill="#AAFF10" d="M8915.87 11255.65c409.19,132.04 716.74,160.83 1121.3,382.67 606.88,332.77 652.4,563.64 811.23,681.42 17.27,-155.82 -26.18,-1050.98 -25.92,-1306.31 0.15,-137.74 28.12,-181.3 -85.87,-262.07 -123.89,-87.79 -494.31,-367.75 -604.74,-376.19 -143.11,287.23 -155.34,411.88 -430.24,622.25 -280.69,214.78 -455.14,214.52 -785.76,258.23z"/>
    <path fill="#1982E2" d="M11451.79 9707.82c-90.1,-74.05 -82.15,-285.24 -57.07,-391.37 42.93,-181.6 101.59,-181.56 162.07,-301.46 -77.29,-27.75 -524.18,-49.37 -609.61,-28.98l0.04 199.05c-80.51,-16.45 -57.02,-128.52 -61.96,-209.63l-129.34 -3.33c-9.26,11.34 -200.07,302.68 -201.71,306.89 34.1,66.34 324.53,363.96 398.9,451.45 122.8,144.5 304.75,294.14 482.08,367.56 393.74,162.99 1033.66,52.16 1107.35,-420.63 -223.76,-52.45 -271.99,66.61 -422.45,-180.48 -93.55,-153.63 -80.53,-351.84 -134.65,-467.88 -62.41,-38.98 -232.44,-33.74 -309.07,-13.72 -63.88,16.66 -135.82,108.35 -168.53,162.04 -155.6,255.42 2.7,451.9 -56.05,530.49z"/>
    <path fill="#1982E2" d="M3609.95 7064.2c-108.27,-63.39 -65.78,-664.69 29.33,-787.66 133.44,2.12 157.69,108.63 201.64,222.9 39.56,102.92 76.02,210.13 108.72,317.7 165.05,543.06 -160.27,366.81 -155.11,600.18 22.12,50.49 299.07,63.99 222.94,560.58 -10.32,67.23 -16.69,70.42 -41.72,95.5 -52.51,-81.32 25.26,-215.34 -22.62,-408.99 -43.34,-175.26 -120.85,-99.71 -208.62,-214.67 -50.6,-308.25 296.2,-101.05 167.24,-565.95 -28.16,-101.48 -148.12,-533.33 -249.28,-548.14 -119.51,205.51 -6.65,673.46 -52.52,728.55zm-23.59 -1308.24c-74.37,58.7 -179.81,554.29 -193.52,666.31 -34.75,284.14 -33.95,521.42 8.81,804.92 221.99,1472.28 882.96,1136.72 860.98,873.26 -10.89,-130.63 -18.96,-260.38 -31.57,-390.89 -25.94,-268.63 -30.19,-555.95 -45.42,-827.29 -18.49,-328.78 -78.24,-362.17 -248.96,-620.8 -51.58,-78.12 -296.32,-487.99 -350.32,-505.51z"/>
    <path fill="#1982E2" d="M8013.38 8075.14c-96.51,-37.59 -62.99,-440.36 -10.15,-526.79 54.71,-89.54 160.12,-80.92 169.11,-162.71 9.52,-86.51 -85.63,-126.51 -130.1,-184.5 -86.19,-112.4 0.93,-386.61 33.69,-517.25 34.83,-138.91 88.3,-391.69 269.61,-381.39 107.48,144.28 84.59,570.66 21.64,742.16 -41.68,-40.02 -29.2,11.21 -31.12,-82.57 -2.14,-103.79 55.04,-460.97 -7.5,-596.49 -85.54,-7.75 -106.53,73.82 -141,151.76 -34.79,78.63 -51.23,144.07 -72.35,228.01 -57.81,229.72 -101.5,365.61 23.58,469.18 250.57,207.48 -53.66,326.17 -67.81,340.02 -112.08,109.86 -8.31,434.99 -57.6,520.57zm393.92 -2296.07c-89.41,-7.38 -300.06,370.49 -361.69,455.9 -368.67,510.84 -314.92,702.94 -312.74,1388.4 0.45,141.93 -0.17,283.95 -0.22,425.82 -0.08,163.95 -6.09,200.84 160.01,260.47 433.4,155.56 620.57,-727.34 658.04,-1005.14 37.1,-274.96 3.18,-1311.19 -143.4,-1525.45z"/>
    <path fill="#EE65E1" d="M9793.94 7823.89c482.67,-222.11 611.6,1066.77 184.53,1258.27 -462.55,207.43 -600.87,-1066.69 -184.53,-1258.27zm-444.41 792.85c44.27,435.62 354.09,872.01 841.08,799.4 191.2,-28.52 356.28,-206.74 450.07,-364.15 185.69,-311.62 80.15,-316.22 52.2,-634.35 -27.06,-308.07 60.51,-423.26 -169.34,-670 -153.94,-165.24 -382.17,-241.92 -604.87,-189.36 -428.32,101.05 -608.23,673.85 -569.14,1058.46z"/>
    <path fill="#ECEB12" d="M3462.31 4631.98c17.39,-335.86 -96.29,-1108.62 -333.1,-1327.11 -124.91,31.92 -52.76,59.39 -128.93,89.56 -47.29,-77.59 51.7,-103.68 91.87,-152.45 -44.87,-87.98 -226.74,-308.28 -312.36,-345.93l-104.79 91.53c-41.2,-65.16 21.19,-88.61 57.77,-142.64 -39.85,-82.27 -851.06,-820.49 -958.94,-879.02 79.63,185.13 1639.96,2634.32 1688.48,2666.06z"/>
    <path fill="#1982E2" d="M7222.49 4220.98l12.69 -25.11 10.82 -27.93 -10.82 27.93c-116.29,-106.99 151.7,-301.83 -43.17,-840.96 -156.07,-431.78 -450.45,-1099.21 -215.91,-1548.37 140.41,-268.91 316.75,-297.49 531.78,-448.46 -8.2,-55.03 -48.91,-141.52 -93.58,-170.59 -28.87,-7.04 -1020.23,275.46 -735.89,1480.96 128.22,543.58 470.39,760.23 290.25,1351.88 -39.64,130.14 -134.19,309.61 -160.43,409.13l242.91 27.98 133.47 -261.23c46.92,-4.46 3.62,-21.83 37.88,24.77z"/>
    <path fill="#1982E2" d="M5027.92 4425.98l225.14 16.07c134.45,-163.57 55.46,-734.6 -24.49,-923.83 -101.53,-240.39 -299.85,-449.65 -412.95,-672.53 -184.6,-363.75 -418.79,-850.44 -181.4,-1219.13 83.55,-129.73 197.04,-193.89 264.1,-284.36l-76.74 -190.18c-95.6,26.76 -254.98,189.28 -319.81,261.84 -106.82,119.56 -161.03,235.01 -188.41,394.61 -116.17,677.43 397.96,1208.54 655.55,1637.96 243.18,405.39 23.5,842.45 59.01,979.55z"/>
    <path fill="#ECEB12" d="M2151.12 3060.44c79.73,3.87 71.93,-34.63 139.25,11.17 -36.02,55.87 -41.55,15.96 -100.75,49.74 -2.46,50.38 136.41,380.57 170.33,431.49 87.17,15.49 94.38,-31.08 164.11,24.17l-124.37 38.91c-2.52,90.88 98.8,271.94 138.67,354.92 170.57,355.04 128.85,106.66 254.36,201.88l-82.89 55.95c57.62,167.98 532.14,429.19 699.88,460.72 -32.46,-108.61 -1541.61,-2488.28 -1593.31,-2526.87l334.72 897.92z"/>
    <path fill="#1982E2" d="M11690.86 8726.14c259.35,-25.01 170.36,-634.13 247.63,-793.44 61.01,61.35 9.57,130.95 26.3,233.15 199.96,66.93 169.82,-51.14 287.15,-104.66 111.97,-51.09 252.93,-16.32 376.92,-48.91 48.01,-210.46 20.27,-327.31 -199.08,-331.64 -178.97,-3.56 -357.39,-0.23 -536.49,-2.11 -187.54,-1.95 -295.5,-4.97 -360.31,183.96 -39.46,115.1 -49.25,380.48 -32.18,500.45 77.12,21.76 186.72,7.56 214.55,100.44 29.76,99.41 -17.36,172.49 -24.49,262.76z"/>
    <path fill="#EF882B" d="M9599.68 8537.91c112.81,850.91 619.23,529 578.71,-190.11 -9.11,-161.52 -129.4,-602.54 -367.13,-470.91 -178.56,98.87 -235.99,476.89 -211.58,661.02z"/>
    <path fill="#ECEBDE" d="M8209.65 1393.71c-48.4,-121.16 -182.64,-104.72 -167.76,-345.69 12.94,-209.4 147.36,-215.95 199.6,-314.01 -116.67,-229.77 -745.55,-188.5 -766.54,282.24 -19.72,442.7 517.88,625.25 734.7,377.46z"/>
    <path fill="#ECEBDE" d="M5641.08 1359.74c-65.42,-99.88 -185.43,-88.68 -206.42,-300.49 -18.55,-187.07 70.99,-239.22 177.39,-346.49 -177.67,-246.25 -750.55,-108.91 -739.65,351.73 9.83,415.11 547.62,579.54 768.68,295.25z"/>
    <path fill="#EF882B" d="M12640.63 8995.17c22.78,-181.73 -5.25,-519.39 -130.42,-664.33 -191.87,-222.27 -306.32,301.38 -314.44,411.56 -46.48,630.55 334.8,1130.66 444.86,252.77z"/>
    <path fill="#EE65E1" d="M11991.01 8952.11c7.62,-141.91 -4.81,-264.75 19,-409 16.92,-102.6 84.01,-257.71 88.01,-316.38 -187.69,-20.69 -146.19,5.44 -162.06,164.22 -16.97,169.49 -69.41,392.06 -278.57,396.38 -140.61,2.91 -138.08,-37.82 -206.18,-117.47 -132.3,138.52 -216.55,84.83 -362.49,30.34 -165.65,70.32 -57.45,56.8 -276.63,65.7 -40.92,178.26 -31.38,145.76 166.7,149.32 116.6,2.09 212.66,18.79 330.79,21.96 120.77,3.26 603.1,36.13 681.43,14.93z"/>
    <path fill="#1982E2" d="M11307.27 8681.83c172.77,62.76 129.43,-362.41 129.75,-459.29 1.25,-379.84 45.96,-316.41 99.89,-508.74 -183.29,-11.3 -341.96,-42.76 -414.95,148.17 -48.19,126.05 -48.16,361.3 -25.51,494.98 81.65,22.31 181.36,4.89 217.34,82.59 46.44,100.31 -17.81,172.31 -6.52,242.29z"/>
    <path fill="#17172B" d="M5017.74 7670.67c28.06,-53 53.28,-55.79 90,-99.97 32.58,-39.15 44.79,-96.99 80.44,-121.91 55.37,58.11 71.98,173.59 47.64,249.93 -81.05,14.36 -153.01,17.9 -218.08,-28.05zm-62.32 -45.33c-52.27,-20.41 -95.07,-69.02 -106.04,-124.79 153.5,-15.87 117.14,-1.1 257.32,-57.42 1.03,79.3 -77.96,160.07 -151.28,182.21zm298.26 -209.66c81.33,11.02 161.76,83.28 179.77,161.76 -34.77,43.79 -70.68,82.04 -126.68,88.87 -7.22,-56.13 -53.24,-233.18 -53.09,-250.63zm-434.93 13.61c-13.73,-81.51 -14.35,-139.02 28.49,-206.05 45.22,29.39 66.07,65.09 109.73,99.27 52.46,41.08 82.37,35.4 122.6,63.54 -70.1,73.54 -167.56,62.02 -260.82,43.24zm679.17 -142.63c20.02,77.19 14.38,152.65 -29.63,217.72 -36.44,-28.42 -64.92,-66.48 -106.93,-97.97 -46.56,-34.91 -86.81,-45.52 -132.84,-77.66 62.63,-64.94 187.22,-77.81 269.4,-42.09zm-277.8 -37.68c7.37,-75.87 69.35,-138.39 134.55,-170.24 53.6,22.43 93.7,68.95 112.39,127.82 -47.28,8.94 -82.85,2.96 -129.04,12.51 -51.19,10.62 -55.94,23.45 -117.9,29.91zm-331.13 -100.45c35.2,-56.77 35.7,-57.55 99.75,-74.63 1.23,2.76 59.17,220.04 60.21,231.03 -73.17,-11.46 -142.6,-86.04 -159.96,-156.4zm234.19 137.42c-20,-16.56 -230.91,-348.45 156.09,-251.88 -5.87,44.12 -56.08,79.22 -84.52,119.56 -34.21,48.53 -38.64,93.99 -71.57,132.32zm-88.74 -298.11c-504.56,161.9 -237.58,918.85 246.35,755.35 491.76,-166.14 269.99,-921 -246.35,-755.35z"/>
    <path fill="#1982E2" d="M10950.68 8704.39c170.61,-10.92 83.14,-269.78 79.45,-418.55 -6.61,-266.78 13.62,-273.52 58.28,-505.74 -170.04,-20.97 -267.08,-10.24 -325.11,159.01 -32.39,94.46 -31.07,346.64 -12.24,448.36 279.61,56.75 226.65,31.92 199.62,316.92z"/>
    <path fill="#030302" d="M6769.35 7480.17c22.79,-21.51 1.49,-8.81 33,-18.73 44.81,76.37 55.96,148 43.11,238.66 -83.8,15.08 -137.24,12.83 -217.54,-15.55l141.43 -204.38zm-307.05 26.52c123.2,-9.57 174.09,-42.05 252.87,-52.42 -16.26,75.25 -80.82,148.46 -151.11,184.59 -48.2,-28.47 -103.06,-76.46 -101.76,-132.17zm145.62 -78.66c-43.54,49.96 -104.55,36.96 -175.25,26.87 -26.95,-70.75 -25.31,-153.74 9.93,-221.02 57.12,0.85 42.83,16.91 85.2,62.8 35.68,38.66 54.44,37.19 85.67,79.07l-1.79 -6.42 62.24 17.71c13.97,46.8 -26.33,41.29 -66,40.99zm207.84 -168.41c23.76,-80.53 96.26,-138.34 171.05,-169.09 49.36,27.86 86.21,72.76 95.09,132.66 -9.9,2.23 -263.91,36.48 -266.14,36.43zm-322.52 -90.29c21.02,-70.92 62.66,-107.63 134.07,-112.86 5.19,47.16 0.74,92.19 7.05,136.72 7.12,50.26 22.95,70.47 29.62,120.06 -77.2,-7.32 -133.24,-72.71 -170.74,-143.92zm241.88 122.39c-72.24,-53.89 -74.11,-182.69 -44.64,-264.4 92.5,-17.74 144.94,-12.17 232.36,16.39 -15.4,50.92 -64.98,67.07 -103.43,110.03 -43.43,48.51 -52.5,92.78 -84.29,137.98zm175.62 438.94c-12.41,-41.98 -16.73,-10.49 -21.27,-76.26 14.58,-60.03 11.88,-121.02 -26.39,-173.02 -55.96,-23.91 -19.67,18.09 -44.98,-40.67 12.52,-29.59 -26.54,-66.52 69.54,-46.76 -67.04,20.89 -22.03,6.37 -33.07,-15.52 -67.29,21.53 -20.82,4.51 -28.76,-16.5 -29.89,3.02 -18.75,8.66 -29.78,-22.42 22.97,-62.15 -9.23,0.37 30.71,-21.81 -17.26,-41.21 -17.15,-27.26 26.06,-14.77l105.24 -26.39c29.07,-26.85 -15.1,-31.17 79.43,-35.49 69.5,-3.17 57.82,9.38 74.06,37.6l43.97 -6.84c-77.41,-345.37 -527.78,-419.69 -727.07,-115.8 -229.54,350.01 226.25,738.11 482.31,574.65z"/>
    <path fill="#4B1502" d="M9599.68 8537.91c-24.41,-184.13 33.02,-562.15 211.58,-661.02 237.73,-131.63 358.02,309.39 367.13,470.91 40.52,719.11 -465.9,1041.02 -578.71,190.11zm194.26 -714.02c-416.34,191.58 -278.02,1465.7 184.53,1258.27 427.07,-191.5 298.14,-1480.38 -184.53,-1258.27z"/>
    <path fill="#ECEB12" d="M6910.74 7730.66c-256.06,163.46 -711.85,-224.64 -482.31,-574.65 199.29,-303.89 649.66,-229.57 727.07,115.8 60.2,190.93 -68.06,401.19 -244.76,458.85zm-598.52 -312.26c84.1,597.74 985.94,498.9 913.59,-126.85 -67.74,-585.78 -998.98,-479.88 -913.59,126.85z"/>
    <path fill="#17172B" d="M5855.89 8437.7c-117.3,69.52 -209.67,171.71 -167,327.96 40.82,149.43 223.31,131.16 333.27,175.99 125.01,50.95 195.13,169.23 322.05,184.26 147.95,17.5 245.61,-87.74 283.26,-220.04 83.96,-294.97 -329.45,-1303.94 -623.06,-1370.59 17.34,85.85 166.73,180.05 309.63,431.58 130.22,229.18 403.31,848.07 173.18,1062.49 -160.76,149.78 -312.02,-104.16 -472.05,-145.51 -486.87,-72.35 -244.52,-344.91 -155.88,-376.43 -18.62,-44.38 19.56,-11.22 -36.46,-47.23l33.06 -22.48zm187.81 2.03l-23.67 -0.02c-64.66,-3.3 -114.7,-11.4 -172.08,13.87 62.43,63.3 31.94,19.93 130.5,30.53 74.83,8.02 27.34,30.65 113.99,24.92 -18.31,-72.23 1.19,-11.51 -48.74,-69.3z"/>
    <path fill="#ECEB12" d="M5034.44 6987.84c516.34,-165.65 738.11,589.21 246.35,755.35 -483.93,163.5 -750.91,-593.45 -246.35,-755.35zm36.3 -75.81c-601.37,131.53 -417.82,1015.46 196.5,898.15 556,-106.19 416.1,-1032.17 -196.5,-898.15z"/>
    <path fill="#4B1502" d="M12640.63 8995.17c-110.06,877.89 -491.34,377.78 -444.86,-252.77 8.12,-110.18 122.57,-633.83 314.44,-411.56 125.17,144.94 153.2,482.6 130.42,664.33zm-264.3 -762.76c-349.1,116.6 -311.83,1347.09 80.21,1278.65 352.32,-61.49 318.07,-1411.68 -80.21,-1278.65z"/>
    <path fill="#17172B" d="M8013.38 8075.14c49.29,-85.58 -54.48,-410.71 57.6,-520.57 14.15,-13.85 318.38,-132.54 67.81,-340.02 -125.08,-103.57 -81.39,-239.46 -23.58,-469.18 21.12,-83.94 37.56,-149.38 72.35,-228.01 34.47,-77.94 55.46,-159.51 141,-151.76 62.54,135.52 5.36,492.7 7.5,596.49 1.92,93.78 -10.56,42.55 31.12,82.57 62.95,-171.5 85.84,-597.88 -21.64,-742.16 -181.31,-10.3 -234.78,242.48 -269.61,381.39 -32.76,130.64 -119.88,404.85 -33.69,517.25 44.47,57.99 139.62,97.99 130.1,184.5 -8.99,81.79 -114.4,73.17 -169.11,162.71 -52.84,86.43 -86.36,489.2 10.15,526.79z"/>
    <path fill="#17172B" d="M3609.95 7064.2c45.87,-55.09 -66.99,-523.04 52.52,-728.55 101.16,14.81 221.12,446.66 249.28,548.14 128.96,464.9 -217.84,257.7 -167.24,565.95 87.77,114.96 165.28,39.41 208.62,214.67 47.88,193.65 -29.89,327.67 22.62,408.99 25.03,-25.08 31.4,-28.27 41.72,-95.5 76.13,-496.59 -200.82,-510.09 -222.94,-560.58 -5.16,-233.37 320.16,-57.12 155.11,-600.18 -32.7,-107.57 -69.16,-214.78 -108.72,-317.7 -43.95,-114.27 -68.2,-220.78 -201.64,-222.9 -95.11,122.97 -137.6,724.27 -29.33,787.66z"/>
    <path fill="#AAFF10" d="M3978.05 11090.83l0.09 -442.44c-105.75,28.42 -570.42,407.73 -605.19,493.82l605.1 -51.38z"/>
    <path fill="#4B1502" d="M4221.47 11281.52c90.62,133.16 716.91,312.82 889.72,334.14 532.44,65.68 540.56,46.52 1012.09,32.72 70.53,-2.07 99.04,-2.1 112.86,-55.14 -114.54,-26.35 -433.76,22.29 -587.5,17.84 -299.55,-8.7 -736.61,-67.85 -1019.09,-177.71 -77.64,-30.2 -357.09,-182.97 -408.08,-151.85z"/>
    <path fill="#AAFF10" d="M7968.29 11138.4c90.84,32.62 508.75,69.61 624.54,74.75 -58.43,-78.85 -62.97,-34.15 -178.45,-96.43 -239.78,-129.32 -384.73,-295.22 -441.7,-315.59l-4.39 337.27z"/>
    <path fill="#EE65E1" d="M4255.03 7035.91c79.17,-7.95 166.64,-126.29 165.12,-217.61 -1.36,-82.54 -124.18,-189.05 -204.13,-201.79l39.01 419.4z"/>
    <path fill="#17172B" d="M7111.53 7278.65c9.19,88.93 11.05,160.1 -30.41,232.4 -72.87,-26.28 -90.92,-113.21 -193.48,-117.1 -2.27,-26.15 29.88,-25.18 -33.07,-15.52 -1.92,-28.86 25.33,-26.93 -28.76,-16.5l0.93 -44.23c33.23,12.27 26.06,19.44 26.06,-14.77 -43.21,-12.49 -43.32,-26.44 -26.06,14.77 -39.94,22.18 -7.74,-40.34 -30.71,21.81 11.03,31.08 -0.11,25.44 29.78,22.42 7.94,21.01 -38.53,38.03 28.76,16.5 11.04,21.89 -33.97,36.41 33.07,15.52 -96.08,-19.76 -57.02,17.17 -69.54,46.76 25.31,58.76 -10.98,16.76 44.98,40.67 6.63,-52.96 -21.68,-19.98 15.83,-52.2 67.21,29.8 126.56,82.13 157.03,146.88 -24.71,47.09 -51.32,62.13 -98.39,94.95l-48.08 -16.61c4.54,65.77 8.86,34.28 21.27,76.26 176.7,-57.66 304.96,-267.92 244.76,-458.85l-43.97 6.84c-16.24,-28.22 -4.56,-40.77 -74.06,-37.6 -94.53,4.32 -50.36,8.64 -79.43,35.49l153.49 2.11z"/>
    <path fill="#ECEB12" d="M8320.81 835.19c-100.84,-165.63 -393.34,300.68 -110.23,475.98 70.08,43.39 120.25,2.09 58.85,-58.33 -43.49,-42.81 -80.12,-53.93 -95.78,-128.33 -42.54,-202.31 132.93,-223.07 147.16,-289.32z"/>
    <path fill="#063866" d="M5696.62 9562.82c4.8,3.91 10.52,7.46 15.9,9.68 5.18,2.16 9.61,6.14 15.98,8.27l75.18 1.36c30.51,-7.68 30.53,-14.19 68.35,-23.64 246.99,-61.66 437.41,33.66 535.71,-57.21l-35.46 -34.41c-106.88,-4.25 -285.48,-14.01 -386.81,-0.71 -37.1,4.88 -102.77,19.48 -144.84,29.03 -71.27,16.19 -103.15,12.37 -144.01,67.63z"/>
    <path fill="#ECEB12" d="M5708.61 1281.78c15.44,-108.98 -125.67,-45.68 -140.77,-233.87 -15.33,-191.21 130.4,-167.48 124.14,-264.27 -109.15,-83.32 -205.19,149.48 -203.7,248.94 1.67,110.14 125.11,318.61 220.33,249.2z"/>
    <path fill="#ECEBDE" d="M11610.96 8717.76c38.42,-46.84 64.36,-131.69 61.1,-195.81 -5.49,-107.53 -90.32,-93.25 -174.07,-77.85 -13.61,105.26 -18.38,262.09 112.97,273.66z"/>
    <path fill="#EE65E1" d="M6852.8 7302.93c0,34.21 7.17,27.04 -26.06,14.77l-0.93 44.23c54.09,-10.43 26.84,-12.36 28.76,16.5 62.95,-9.66 30.8,-10.63 33.07,15.52 102.56,3.89 120.61,90.82 193.48,117.1 41.46,-72.3 39.6,-143.47 30.41,-232.4l-153.49 -2.11 -105.24 26.39z"/>
    <path fill="#4B1502" d="M9889.37 15538.82l50.43 0c1.77,-126.73 -3.68,-252.57 -2.66,-378.43 0.56,-68.49 30.73,-283.2 -52.05,-289.7 -22,92.29 -7.3,555.4 4.28,668.13z"/>
    <path fill="#ECEB12" d="M6735.12 7291.72c31.79,-45.2 40.86,-89.47 84.29,-137.98 38.45,-42.96 88.03,-59.11 103.43,-110.03 -87.42,-28.56 -139.86,-34.13 -232.36,-16.39 -29.47,81.71 -27.6,210.51 44.64,264.4z"/>
    <path fill="#ECEBDE" d="M11232.7 8680.72c35.63,-67.79 55.68,-144.71 27.34,-220.25 -49.56,-37.3 -98.97,-39.12 -161.15,-25.88 -23.35,93.54 3.52,255.51 133.81,246.13z"/>
    <path fill="#ECEB12" d="M5228.52 7328.75c46.03,32.14 86.28,42.75 132.84,77.66 42.01,31.49 70.49,69.55 106.93,97.97 44.01,-65.07 49.65,-140.53 29.63,-217.72 -82.18,-35.72 -206.77,-22.85 -269.4,42.09z"/>
    <path fill="#1982E2" d="M8330.57 1225.13c53,-74.99 73.45,-241.19 11.42,-313 -142.45,30.3 -176.55,255.12 -11.42,313z"/>
    <path fill="#1982E2" d="M5740.79 1184.31c59.86,-77.51 35.68,-215.47 0.58,-305.7 -158.77,-0.51 -155.8,261.75 -0.58,305.7z"/>
    <path fill="#EE65E1" d="M5123.18 7285.95c32.93,-38.33 37.36,-83.79 71.57,-132.32 28.44,-40.34 78.65,-75.44 84.52,-119.56 -387,-96.57 -176.09,235.32 -156.09,251.88z"/>
    <path fill="#ECEBDE" d="M10868.42 8707.51c83.23,-106.76 96.36,-277.69 -106.5,-259.29 -27.21,99.86 -8.12,235.75 106.5,259.29z"/>
    <path fill="#EE65E1" d="M5017.74 7670.67c65.07,45.95 137.03,42.41 218.08,28.05 24.34,-76.34 7.73,-191.82 -47.64,-249.93 -35.65,24.92 -47.86,82.76 -80.44,121.91 -36.72,44.18 -61.94,46.97 -90,99.97z"/>
    <path fill="#ECEB12" d="M6627.92 7684.55c80.3,28.38 133.74,30.63 217.54,15.55 12.85,-90.66 1.7,-162.29 -43.11,-238.66 -31.51,9.92 -10.21,-2.78 -33,18.73l-141.43 204.38z"/>
    <path fill="#ECEB12" d="M4818.75 7429.29c93.26,18.78 190.72,30.3 260.82,-43.24 -40.23,-28.14 -70.14,-22.46 -122.6,-63.54 -43.66,-34.18 -64.51,-69.88 -109.73,-99.27 -42.84,67.03 -42.22,124.54 -28.49,206.05z"/>
    <path fill="#EF882B" d="M6815.76 7259.62c2.23,0.05 256.24,-34.2 266.14,-36.43 -8.88,-59.9 -45.73,-104.8 -95.09,-132.66 -74.79,30.75 -147.29,88.56 -171.05,169.09z"/>
    <path fill="#EF882B" d="M5433.45 7577.44c-18.01,-78.48 -98.44,-150.74 -179.77,-161.76 -0.15,17.45 45.87,194.5 53.09,250.63 56,-6.83 91.91,-45.08 126.68,-88.87z"/>
    <path fill="#1982E2" d="M6493.24 7169.33c37.5,71.21 93.54,136.6 170.74,143.92 -6.67,-49.59 -22.5,-69.8 -29.62,-120.06 -6.31,-44.53 -1.86,-89.56 -7.05,-136.72 -71.41,5.23 -113.05,41.94 -134.07,112.86z"/>
    <path fill="#EF882B" d="M6462.3 7506.69c-1.3,55.71 53.56,103.7 101.76,132.17 70.29,-36.13 134.85,-109.34 151.11,-184.59 -78.78,10.37 -129.67,42.85 -252.87,52.42z"/>
    <path fill="#1982E2" d="M4955.42 7625.34c73.32,-22.14 152.31,-102.91 151.28,-182.21 -140.18,56.32 -103.82,41.55 -257.32,57.42 10.97,55.77 53.77,104.38 106.04,124.79z"/>
    <path fill="#EE65E1" d="M7570.88 6896.09c10.43,74.79 34.66,129.28 108.89,140.64l31.85 -280.34c-51.79,11.68 -109.88,84.87 -140.74,139.7z"/>
    <path fill="#1982E2" d="M6863.08 7481.38c38.27,52 40.97,112.99 26.39,173.02l48.08 16.61c47.07,-32.82 73.68,-47.86 98.39,-94.95 -30.47,-64.75 -89.82,-117.08 -157.03,-146.88 -37.51,32.22 -9.2,-0.76 -15.83,52.2z"/>
    <path fill="#1982E2" d="M5220.12 7248.98c61.96,-6.46 66.71,-19.29 117.9,-29.91 46.19,-9.55 81.76,-3.57 129.04,-12.51 -18.69,-58.87 -58.79,-105.39 -112.39,-127.82 -65.2,31.85 -127.18,94.37 -134.55,170.24z"/>
    <path fill="#4B1502" d="M1960.36 15538.82l47.75 0c1.96,-104.01 28.38,-348.67 -16.74,-427.95 -47.64,25.95 -32.91,23 -32.48,96.16l1.47 331.79z"/>
    <path fill="#28598C" d="M5855.89 8437.7l-33.06 22.48c56.02,36.01 17.84,2.85 36.46,47.23 -88.64,31.52 -330.99,304.08 155.88,376.43 -86.36,-73.43 -150.68,2.93 -261.9,-136.88 -5.14,-102.71 15.98,-183.83 98.85,-228.47 123.27,-66.42 177.62,44.21 264.27,5.43 -7.54,-62.87 -6.8,-62.89 -72.69,-84.19 49.93,57.79 30.43,-2.93 48.74,69.3 -86.65,5.73 -39.16,-16.9 -113.99,-24.92 -98.56,-10.6 -68.07,32.77 -130.5,-30.53 57.38,-25.27 107.42,-17.17 172.08,-13.87 -49.31,-38.31 -103.1,-31.25 -164.14,-2.01z"/>
    <path fill="#EF882B" d="M4888.99 7148.53c17.36,70.36 86.79,144.94 159.96,156.4 -1.04,-10.99 -58.98,-228.27 -60.21,-231.03 -64.05,17.08 -64.55,17.86 -99.75,74.63z"/>
    <path fill="#EE65E1" d="M6607.92 7428.03l24.54 -28.18 -20.78 -30.52 1.79 6.42c-98.09,-31.96 -64.18,-48.59 -112.69,-83.73 -46.3,-33.56 -17.68,-12.94 -50.3,-20.36l-5.59 158.53 163.03 -2.16z"/>
    <path fill="#B469AE" d="M6607.92 7428.03c39.67,0.3 79.97,5.81 66,-40.99l-62.24 -17.71 20.78 30.52 -24.54 28.18 -163.03 2.16 5.59 -158.53c32.62,7.42 4,-13.2 50.3,20.36 48.51,35.14 14.6,51.77 112.69,83.73 -31.23,-41.88 -49.99,-40.41 -85.67,-79.07 -42.37,-45.89 -28.08,-61.95 -85.2,-62.8 -35.24,67.28 -36.88,150.27 -9.93,221.02 70.7,10.09 131.71,23.09 175.25,-26.87z"/>
   </g>
   <g>
    <path fill="#1982E2" d="M14524.67 4766.87c369.29,-158.73 599.18,435.39 210.54,574.23 -349.63,124.91 -604.94,-404.7 -210.54,-574.23zm-476.36 4091.89c54.41,-4.96 26.35,-8.03 28.3,17.17 56.84,-9.48 26.97,-12.93 38.24,15.94l537.9 213.59c82.11,6.16 261.15,-6.31 311.51,35.98l100.16 -1.08 5.57 -674.11c-577.5,39.59 -1206.24,-401.99 -1217.27,-1016.28 -8.3,-463.71 315.07,-802.3 726.61,-955.26 186.43,-69.28 326.73,-49.52 475.83,-91.98l8.44 -135.88c-86.6,-52.63 -414.69,-96.73 -425.08,-472.23 -4.13,-149.32 27.53,-226.37 123.1,-333.6 122.92,-137.93 153.81,-97.89 291.89,-156.42l9.33 -1424.58c-398.88,-8.1 -413.37,94.38 -505.05,95.7 -68.98,1.01 -200.69,-113.88 -526.41,-63.95 -336.57,51.59 -702.95,171.56 -673.13,574.61 19.5,263.71 284.1,760.36 584.8,518.47 142.35,-114.51 135.97,-278.62 164.98,-450.5 16.15,-95.55 83.17,-414.63 191.34,-423.62 9.44,64.92 -75.99,188.15 -99.64,262.44 -33,103.64 -43.04,221.86 -64.08,329.6 -85.76,439.43 -264.57,307.39 -309.08,460.14 -52.55,180.43 -7.26,474.27 89.56,638.49 163.61,277.49 353.38,200.84 476.24,304.03 -132.41,79.13 -145.46,-93.19 -413.27,66.74 -334.66,199.89 -579.86,582.62 -652.99,956.34 -51.14,261.38 -26.67,685.82 84.03,930.48 32.4,71.63 203.68,152.86 283.05,251.53 130.11,161.73 92.34,243.13 157.65,381.37 103.03,31.44 210.73,-42.78 197.47,146.87z"/>
    <path fill="#9D64DD" d="M15069.32 8418.07l1.38 -897.52 -614.34 19.26c-51.14,-0.73 -124.25,-1.76 -181.95,-2.59 -43.93,-13.93 -55.23,-63.9 -22.36,-89.6 36.78,-28.64 112.67,-23.58 162.37,-26.78 112.55,-7.21 236.24,-33.06 348.21,-12.01l293.84 -40.51 7.91 -882.92c-420.81,-81.05 -1168.81,301.25 -1158.06,964.77 4.95,306.36 139.36,506.86 367.65,692.63 288.42,234.73 449.16,229.34 795.35,275.27z"/>
    <path fill="#030302" d="M14527.73 5272.59c-192.66,-14.74 -209.74,-371.3 -16.91,-456.73 231.77,-102.67 422.1,76.77 358.89,334.57 -13.97,-23.09 -66.13,-303.46 -275.18,-216.34 -217,90.43 -88.39,291.23 -66.8,338.5zm-3.06 -505.72c-394.4,169.53 -139.09,699.14 210.54,574.23 388.64,-138.84 158.75,-732.96 -210.54,-574.23z"/>
    <path fill="#A6EFD7" d="M14527.73 5272.59c-21.59,-47.27 -150.2,-248.07 66.8,-338.5 209.05,-87.12 261.21,193.25 275.18,216.34 63.21,-257.8 -127.12,-437.24 -358.89,-334.57 -192.83,85.43 -175.75,441.99 16.91,456.73z"/>
    <path fill="#1982E2" d="M15057.68 6188.3c12.44,-89.8 19.78,-221.95 -9.31,-301.62 -65.86,-28.37 -265.61,-20.1 -339.6,-3.73 5.64,151.15 200.93,312.07 348.91,305.35z"/>
    <path fill="#030302" d="M14840.38 5633.3c42.26,35.89 50.13,81.46 93.12,115.39 62.68,49.51 78.94,14.59 93.95,95.6l66.71 24.36 0 -367.63 -43.28 -1.28 4.9 0.82 -186.01 8.45c-29.22,63.41 -28.98,44.45 -29.39,124.29z"/>
    <path fill="#1982E2" d="M14889.1 5425.17l-36.67 33.28 -32.56 30.17c-23.78,46.76 -10.96,28.34 -31.47,48.1l-47.4 29.52c-1.88,55.24 14.53,75.15 -36.76,75.91l-21.36 177 296.71 4.75c-53.49,-64.87 -101.48,-53.81 -128.78,-148.19l-27.71 -25.03 -3.11 -100.33c128.48,-140.42 100.36,-27.02 230.52,-81.53l1.52 -86.17 -73.45 3.71 -89.48 38.81z"/>
    <path fill="#EE65E1" d="M13866.47 8995.25c3.76,-42.65 10.8,-175.7 -0.71,-207.82 -49.07,-19.61 -112.6,-20.71 -160.96,-0.54 -38.22,30.69 -86.6,288.34 161.67,208.36z"/>
    <path fill="#B469AE" d="M13975.1 8866.24c26.83,-50.9 54.53,-33.8 -0.45,-97.42 -88,30.38 -74.79,164.32 -33.69,231.31l49.65 -5.2c34.62,-64.01 20.91,-71.38 -15.51,-128.69z"/>
    <path fill="#28598C" d="M14850.81 5675.71l-10.43 -42.41c0.41,-79.84 0.17,-60.88 29.39,-124.29l186.01 -8.45 -4.9 -0.82c40.32,-62.17 36.35,-85.67 -2.63,-142.88 -69.13,11.62 -31.28,-0.6 -69.67,29.5l73.45 -3.71 -1.52 86.17c-130.16,54.51 -102.04,-58.89 -230.52,81.53l3.11 100.33 27.71 25.03zm-30.94 -187.09l32.56 -30.17 36.67 -33.28 -36.67 33.28 -28.5 1.99 -4.06 28.18c-35.06,15.79 -58.17,43.5 -78.87,77.62 -37.22,35.65 -27.84,18.85 -36.76,75.91 51.29,-0.76 34.88,-20.67 36.76,-75.91l47.4 -29.52c20.51,-19.76 7.69,-1.34 31.47,-48.1z"/>
   </g>
  </g>
 </g>
</svg>
